<svg version="1.1" id="Layer_1" xmlns="http://www.w3.org/2000/svg" xmlns:xlink="http://www.w3.org/1999/xlink" x="0px" y="0px"
	 width="100%" viewBox="0 0 180 180" enable-background="new 0 0 180 180" xml:space="preserve">
<path fill="#030303" opacity="1.000000" stroke="none" 
	d="
M181.000000,76.000000 
	C181.000000,111.333336 181.000000,146.166672 181.000000,181.000000 
	C121.000000,181.000000 61.000000,181.000000 1.000000,181.000000 
	C1.000000,121.000000 1.000000,61.000000 1.000000,1.000000 
	C61.000000,1.000000 121.000000,1.000000 181.000000,1.000000 
	C181.000000,25.833334 181.000000,50.666668 181.000000,76.000000 
M87.540512,86.174553 
	C98.926682,86.174553 110.312851,86.174553 121.699020,86.174553 
	C121.697365,85.493164 121.695702,84.811775 121.694046,84.130386 
	C120.154839,84.038521 118.615776,83.869858 117.076401,83.867012 
	C105.248047,83.845100 93.419106,83.907120 81.592003,83.783958 
	C80.257355,83.770058 78.933006,82.767731 77.603882,82.223747 
	C78.985420,81.546455 80.359428,80.299721 81.749672,80.281349 
	C93.575989,80.125076 105.405373,80.216209 117.233521,80.162910 
	C118.768776,80.155991 120.302238,79.749390 121.836540,79.527924 
	C121.778236,79.017937 121.719940,78.507942 121.661644,77.997955 
	C107.107407,77.997955 92.553169,77.997955 77.874046,77.997955 
	C77.874046,69.825195 77.874046,62.253147 77.874046,53.863808 
	C95.708702,53.863808 113.280693,53.863808 130.852692,53.863808 
	C130.893234,53.397530 130.933792,52.931255 130.974350,52.464977 
	C129.812195,52.268517 128.650436,51.903774 127.487831,51.900997 
	C111.661209,51.863182 95.833511,51.969963 80.008385,51.811497 
	C75.858772,51.769943 74.987846,53.656898 75.003487,57.305523 
	C75.099915,79.795700 75.104980,102.286758 74.998528,124.776848 
	C74.980820,128.518539 76.039619,130.219650 80.098152,130.179718 
	C95.923332,130.024002 111.750992,130.128128 127.577614,130.089722 
	C128.702927,130.086990 129.827347,129.713593 130.952179,129.512543 
	C130.917099,129.029648 130.882004,128.546768 130.846924,128.063873 
	C113.248299,128.063873 95.649673,128.063873 77.842712,128.063873 
	C77.842712,119.690147 77.842712,112.117920 77.842712,103.674957 
	C92.616516,103.674957 107.156769,103.674957 121.697014,103.674957 
	C121.702621,103.159302 121.708221,102.643646 121.713829,102.127991 
	C120.193253,102.021225 118.672867,101.825134 117.152069,101.821854 
	C105.323738,101.796356 93.494392,101.876335 81.668205,101.715324 
	C80.302605,101.696732 78.954384,100.401726 77.598106,99.698502 
	C78.957306,99.179512 80.312119,98.223740 81.676392,98.210052 
	C93.503586,98.091331 105.332573,98.164131 117.160751,98.115166 
	C118.717682,98.108727 120.273094,97.737389 121.829208,97.535049 
	C121.771439,96.965126 121.713669,96.395210 121.655899,95.825294 
	C120.087425,95.825294 118.518959,95.825256 116.950485,95.825302 
	C105.122101,95.825638 93.293083,95.881287 81.466217,95.747559 
	C80.172150,95.732925 78.890404,94.629166 77.602943,94.030571 
	C78.857544,93.403046 80.105942,92.245285 81.367722,92.230507 
	C93.194473,92.091980 105.023575,92.165352 116.851860,92.130951 
	C118.496346,92.126167 120.140091,91.868919 121.784180,91.728539 
	C121.775108,91.220917 121.766045,90.713295 121.756973,90.205673 
	C120.089317,90.088760 118.421890,89.874550 116.753960,89.870529 
	C104.759041,89.841637 92.763466,89.905144 80.770012,89.769699 
	C79.706299,89.757690 78.656242,88.537582 77.599838,87.878578 
	C78.584991,87.310211 79.522919,86.389015 80.565475,86.249451 
	C82.529388,85.986534 84.553635,86.174202 87.540512,86.174553 
M51.081013,109.499985 
	C51.080875,122.327904 51.216286,135.158035 51.006496,147.982529 
	C50.933838,152.424271 52.225132,154.212555 56.951889,154.174835 
	C80.274117,153.988647 103.598640,154.096863 126.922325,154.072281 
	C128.259598,154.070862 129.596603,153.813644 130.933731,153.675491 
	C130.918869,153.106689 130.904022,152.537888 130.889160,151.969086 
	C105.284546,151.969086 79.679939,151.969086 54.086937,151.969086 
	C54.086937,110.824692 54.086937,70.748734 54.086937,29.816730 
	C79.874634,29.816730 105.375381,29.816730 130.876129,29.816730 
	C130.890228,29.294985 130.904327,28.773239 130.918427,28.251493 
	C129.413879,28.139706 127.909409,27.931881 126.404762,27.930523 
	C103.414276,27.909775 80.423752,27.911510 57.433243,27.918886 
	C51.259827,27.920866 51.083645,28.108744 51.082371,34.530495 
	C51.077469,59.186985 51.080772,83.843475 51.081013,109.499985 
M62.775509,148.109421 
	C85.490189,148.109421 108.204872,148.109421 130.919556,148.109421 
	C130.919357,147.392792 130.919159,146.676163 130.918961,145.959534 
	C107.344521,145.959534 83.770081,145.959534 60.099846,145.959534 
	C60.099846,108.951897 60.099846,72.755486 60.099846,35.708580 
	C83.912979,35.708580 107.388062,35.708580 130.863144,35.708580 
	C130.889755,35.280823 130.916367,34.853069 130.942978,34.425312 
	C130.236298,34.248543 129.529800,33.918156 128.822906,33.917290 
	C106.342339,33.889732 83.861679,33.914490 61.381149,33.871155 
	C58.106007,33.864841 57.040543,35.475815 57.043663,38.523037 
	C57.079506,73.492844 57.086090,108.462730 57.035465,143.432495 
	C57.030502,146.860001 58.467876,148.372360 62.775509,148.109421 
M118.482315,142.120178 
	C122.619553,142.120178 126.756783,142.120178 130.894012,142.120178 
	C130.890518,141.479080 130.887024,140.837997 130.883530,140.196899 
	C109.352058,140.196899 87.820587,140.196899 66.005707,140.196899 
	C66.005707,107.161545 66.005707,74.939972 66.005707,41.914600 
	C87.790161,41.914600 109.353340,41.914600 130.916519,41.914600 
	C130.956985,41.433281 130.997452,40.951965 131.037933,40.470646 
	C129.889374,40.275341 128.741104,39.911789 127.592201,39.909771 
	C107.772102,39.874935 87.951164,39.978069 68.132362,39.813934 
	C63.604492,39.776436 62.995758,42.002758 63.005775,45.722729 
	C63.086948,75.869133 63.129078,106.016273 62.968857,136.162048 
	C62.944416,140.760895 64.431625,142.265732 69.020111,142.204361 
	C85.173149,141.988281 101.330841,142.120270 118.482315,142.120178 
M71.698135,85.500137 
	C71.698135,73.210678 71.698135,60.921215 71.698135,47.838173 
	C91.784683,47.838173 111.340866,47.838173 130.897049,47.838173 
	C130.926346,47.407280 130.955627,46.976387 130.984924,46.545490 
	C130.002640,46.315987 129.020782,45.888470 128.038010,45.886333 
	C109.877739,45.846809 91.717056,45.914780 73.557259,45.814789 
	C69.518036,45.792549 69.001770,47.991371 69.008865,51.254093 
	C69.066376,77.744759 69.103722,104.235901 68.976830,130.726089 
	C68.956902,134.886276 70.443962,136.237503 74.542801,136.199875 
	C92.035248,136.039352 109.530029,136.140884 127.023903,136.112473 
	C128.334702,136.110336 129.645081,135.838608 130.955658,135.692200 
	C130.933456,135.182556 130.911240,134.672913 130.889023,134.163269 
	C111.334053,134.163269 91.779076,134.163269 71.698120,134.163269 
	C71.698120,117.743317 71.698120,102.121727 71.698135,85.500137 
z"/>
<path fill="#F2F2F2" opacity="1.000000" stroke="none" 
	d="
M87.046654,86.174553 
	C84.553635,86.174202 82.529388,85.986534 80.565475,86.249451 
	C79.522919,86.389015 78.584991,87.310211 77.599838,87.878578 
	C78.656242,88.537582 79.706299,89.757690 80.770012,89.769699 
	C92.763466,89.905144 104.759041,89.841637 116.753960,89.870529 
	C118.421890,89.874550 120.089317,90.088760 121.756973,90.205673 
	C121.766045,90.713295 121.775108,91.220917 121.784180,91.728539 
	C120.140091,91.868919 118.496346,92.126167 116.851860,92.130951 
	C105.023575,92.165352 93.194473,92.091980 81.367722,92.230507 
	C80.105942,92.245285 78.857544,93.403046 77.602943,94.030571 
	C78.890404,94.629166 80.172150,95.732925 81.466217,95.747559 
	C93.293083,95.881287 105.122101,95.825638 116.950485,95.825302 
	C118.518959,95.825256 120.087425,95.825294 121.655899,95.825294 
	C121.713669,96.395210 121.771439,96.965126 121.829208,97.535049 
	C120.273094,97.737389 118.717682,98.108727 117.160751,98.115166 
	C105.332573,98.164131 93.503586,98.091331 81.676392,98.210052 
	C80.312119,98.223740 78.957306,99.179512 77.598106,99.698502 
	C78.954384,100.401726 80.302605,101.696732 81.668205,101.715324 
	C93.494392,101.876335 105.323738,101.796356 117.152069,101.821854 
	C118.672867,101.825134 120.193253,102.021225 121.713829,102.127991 
	C121.708221,102.643646 121.702621,103.159302 121.697014,103.674957 
	C107.156769,103.674957 92.616516,103.674957 77.842712,103.674957 
	C77.842712,112.117920 77.842712,119.690147 77.842712,128.063873 
	C95.649673,128.063873 113.248299,128.063873 130.846924,128.063873 
	C130.882004,128.546768 130.917099,129.029648 130.952179,129.512543 
	C129.827347,129.713593 128.702927,130.086990 127.577614,130.089722 
	C111.750992,130.128128 95.923332,130.024002 80.098152,130.179718 
	C76.039619,130.219650 74.980820,128.518539 74.998528,124.776848 
	C75.104980,102.286758 75.099915,79.795700 75.003487,57.305523 
	C74.987846,53.656898 75.858772,51.769943 80.008385,51.811497 
	C95.833511,51.969963 111.661209,51.863182 127.487831,51.900997 
	C128.650436,51.903774 129.812195,52.268517 130.974350,52.464977 
	C130.933792,52.931255 130.893234,53.397530 130.852692,53.863808 
	C113.280693,53.863808 95.708702,53.863808 77.874046,53.863808 
	C77.874046,62.253147 77.874046,69.825195 77.874046,77.997955 
	C92.553169,77.997955 107.107407,77.997955 121.661644,77.997955 
	C121.719940,78.507942 121.778236,79.017937 121.836540,79.527924 
	C120.302238,79.749390 118.768776,80.155991 117.233521,80.162910 
	C105.405373,80.216209 93.575989,80.125076 81.749672,80.281349 
	C80.359428,80.299721 78.985420,81.546455 77.603882,82.223747 
	C78.933006,82.767731 80.257355,83.770058 81.592003,83.783958 
	C93.419106,83.907120 105.248047,83.845100 117.076401,83.867012 
	C118.615776,83.869858 120.154839,84.038521 121.694046,84.130386 
	C121.695702,84.811775 121.697365,85.493164 121.699020,86.174553 
	C110.312851,86.174553 98.926682,86.174553 87.046654,86.174553 
z"/>
<path fill="#E3E3E3" opacity="1.000000" stroke="none" 
	d="
M51.081017,108.999977 
	C51.080772,83.843475 51.077469,59.186985 51.082371,34.530495 
	C51.083645,28.108744 51.259827,27.920866 57.433243,27.918886 
	C80.423752,27.911510 103.414276,27.909775 126.404762,27.930523 
	C127.909409,27.931881 129.413879,28.139706 130.918427,28.251493 
	C130.904327,28.773239 130.890228,29.294985 130.876129,29.816730 
	C105.375381,29.816730 79.874634,29.816730 54.086937,29.816730 
	C54.086937,70.748734 54.086937,110.824692 54.086937,151.969086 
	C79.679939,151.969086 105.284546,151.969086 130.889160,151.969086 
	C130.904022,152.537888 130.918869,153.106689 130.933731,153.675491 
	C129.596603,153.813644 128.259598,154.070862 126.922325,154.072281 
	C103.598640,154.096863 80.274117,153.988647 56.951889,154.174835 
	C52.225132,154.212555 50.933838,152.424271 51.006496,147.982529 
	C51.216286,135.158035 51.080875,122.327904 51.081017,108.999977 
z"/>
<path fill="#E3E3E3" opacity="1.000000" stroke="none" 
	d="
M62.309723,148.109344 
	C58.467876,148.372360 57.030502,146.860001 57.035465,143.432495 
	C57.086090,108.462730 57.079506,73.492844 57.043663,38.523037 
	C57.040543,35.475815 58.106007,33.864841 61.381149,33.871155 
	C83.861679,33.914490 106.342339,33.889732 128.822906,33.917290 
	C129.529800,33.918156 130.236298,34.248543 130.942978,34.425312 
	C130.916367,34.853069 130.889755,35.280823 130.863144,35.708580 
	C107.388062,35.708580 83.912979,35.708580 60.099846,35.708580 
	C60.099846,72.755486 60.099846,108.951897 60.099846,145.959534 
	C83.770081,145.959534 107.344521,145.959534 130.918961,145.959534 
	C130.919159,146.676163 130.919357,147.392792 130.919556,148.109421 
	C108.204872,148.109421 85.490189,148.109421 62.309723,148.109344 
z"/>
<path fill="#E4E4E4" opacity="1.000000" stroke="none" 
	d="
M117.984543,142.120178 
	C101.330841,142.120270 85.173149,141.988281 69.020111,142.204361 
	C64.431625,142.265732 62.944416,140.760895 62.968857,136.162048 
	C63.129078,106.016273 63.086948,75.869133 63.005775,45.722729 
	C62.995758,42.002758 63.604492,39.776436 68.132362,39.813934 
	C87.951164,39.978069 107.772102,39.874935 127.592201,39.909771 
	C128.741104,39.911789 129.889374,40.275341 131.037933,40.470646 
	C130.997452,40.951965 130.956985,41.433281 130.916519,41.914600 
	C109.353340,41.914600 87.790161,41.914600 66.005707,41.914600 
	C66.005707,74.939972 66.005707,107.161545 66.005707,140.196899 
	C87.820587,140.196899 109.352058,140.196899 130.883530,140.196899 
	C130.887024,140.837997 130.890518,141.479080 130.894012,142.120178 
	C126.756783,142.120178 122.619553,142.120178 117.984543,142.120178 
z"/>
<path fill="#E4E4E4" opacity="1.000000" stroke="none" 
	d="
M71.698128,86.000137 
	C71.698120,102.121727 71.698120,117.743317 71.698120,134.163269 
	C91.779076,134.163269 111.334053,134.163269 130.889023,134.163269 
	C130.911240,134.672913 130.933456,135.182556 130.955658,135.692200 
	C129.645081,135.838608 128.334702,136.110336 127.023903,136.112473 
	C109.530029,136.140884 92.035248,136.039352 74.542801,136.199875 
	C70.443962,136.237503 68.956902,134.886276 68.976830,130.726089 
	C69.103722,104.235901 69.066376,77.744759 69.008865,51.254093 
	C69.001770,47.991371 69.518036,45.792549 73.557259,45.814789 
	C91.717056,45.914780 109.877739,45.846809 128.038010,45.886333 
	C129.020782,45.888470 130.002640,46.315987 130.984924,46.545490 
	C130.955627,46.976387 130.926346,47.407280 130.897049,47.838173 
	C111.340866,47.838173 91.784683,47.838173 71.698135,47.838173 
	C71.698135,60.921215 71.698135,73.210678 71.698128,86.000137 
z"/>
</svg>